<svg xmlns="http://www.w3.org/2000/svg" width="140" height="60" viewBox="0 0 37.042 15.875"><g><path d="M1.748 12.233v-7.71h2.837q.799 0 1.36.149.56.148.915.418t.513.656q.164.386.164.862 0 .26-.074.503-.074.238-.232.45-.16.212-.408.386-.249.17-.598.297.762.185 1.127.603.365.413.365 1.063 0 .493-.19.916-.19.423-.561.74-.365.313-.905.493-.54.174-1.233.174zm1.789-3.27v1.921h1.26q.354 0 .576-.09.228-.09.355-.233.127-.143.174-.322.048-.18.048-.366 0-.211-.058-.38-.053-.17-.19-.286-.133-.117-.355-.18-.223-.064-.561-.064zm0-1.196h.931q.297 0 .535-.042.238-.042.402-.148.17-.106.254-.291.09-.185.09-.466 0-.275-.069-.455-.069-.185-.212-.296-.142-.111-.365-.16-.217-.047-.518-.047H3.537zM10.638 12.233h-1.8v-7.71h1.8zM18.57 11.493q-.592.434-1.264.63-.667.195-1.397.195-.953 0-1.736-.296-.778-.302-1.334-.826-.555-.529-.857-1.249-.301-.725-.301-1.571 0-.863.285-1.582.286-.725.815-1.25.535-.523 1.286-.814.757-.291 1.688-.291.482 0 .905.08.423.079.778.216.36.138.656.328.296.19.53.413l-.52.788q-.121.186-.317.228-.19.042-.413-.095-.211-.127-.402-.217-.185-.095-.38-.154-.197-.058-.414-.084-.217-.027-.486-.027-.503 0-.905.18-.402.175-.688.498-.28.322-.434.777-.154.45-.154 1.006 0 .614.17 1.09.17.476.476.804.312.328.74.503.435.17.959.17.322 0 .582-.064.264-.064.513-.17V9.54h-.762q-.17 0-.265-.09t-.095-.228v-.984h2.741v3.255z" style="-inkscape-font-specification:'Lato Heavy'"/></g><g><path d="M22.55 8.065q-.023.022-.045.04-.018.013-.053.013-.044 0-.119-.058-.075-.061-.203-.132-.128-.07-.322-.128-.19-.062-.463-.062-.379 0-.674.137-.291.132-.494.384-.203.251-.309.608-.101.358-.101.803 0 .463.106.82.11.357.308.604.199.243.48.37.283.129.627.129.318 0 .53-.075.215-.075.352-.164.141-.088.22-.163.08-.075.133-.075.053 0 .088.044l.11.141q-.101.133-.256.247-.154.115-.348.199-.194.084-.423.128-.225.048-.472.048-.419 0-.767-.15-.344-.154-.596-.44-.247-.292-.388-.71-.136-.42-.136-.953 0-.503.132-.917.132-.415.388-.715t.622-.463q.37-.167.846-.167.428 0 .759.136.33.137.577.37zM25.402 7.408q.472 0 .842.163.375.159.63.454.256.296.389.714.136.415.136.93 0 .517-.136.931-.133.415-.388.71-.256.296-.631.455-.37.158-.842.158t-.847-.158q-.37-.16-.63-.455-.256-.295-.393-.71-.132-.414-.132-.93t.132-.93q.137-.42.392-.715.26-.295.631-.454.375-.163.847-.163zm0 4.185q.392 0 .683-.133.296-.136.49-.388.198-.251.295-.604.097-.357.097-.798 0-.437-.097-.794-.097-.357-.295-.608-.194-.256-.49-.393-.29-.137-.683-.137-.393 0-.688.137-.291.137-.49.393-.194.251-.295.608-.097.357-.097.794 0 .44.097.798.101.353.295.604.199.252.49.388.295.133.688.133zM28.59 11.866V7.478h.226q.075 0 .106.031.03.031.04.106l.03.922q.102-.27.23-.477.132-.211.3-.357.171-.145.378-.22.212-.08.468-.08.137 0 .269.027.132.022.234.084l-.036.29q-.022.071-.083.071-.053 0-.164-.03-.105-.032-.282-.032-.256 0-.454.08t-.353.234q-.154.15-.273.379-.115.225-.212.52v2.84zM31.709 13.418v-5.94h.233q.11 0 .128.11l.04.68q.29-.397.683-.631.393-.234.878-.234.807 0 1.257.56.454.56.454 1.68 0 .481-.128.9-.123.415-.37.723-.243.304-.6.48-.353.177-.816.177-.445 0-.772-.163-.326-.163-.564-.48v2.138zm1.843-5.675q-.437 0-.79.225-.352.225-.63.626v2.315q.251.38.556.534.304.15.7.15.389 0 .68-.142.29-.14.485-.396.198-.26.295-.618.102-.361.102-.794 0-.979-.362-1.437-.361-.463-1.036-.463z" style="-inkscape-font-specification:'Lato Light'"/></g><path d="M16.271 2.608l.74-.279 1.501-.384 1.506-.12.969.048.338.46.328.466.287.238.598.209.444-.019.474-.41.233.031.194-.172-.106.292.047.171-.254.516.045.119.462.29.708.182 1.058.007.29.195.43.564.631 1.055.511 1.115s.268.53.135.639c-.133.108-.156.002-.156.002l-.176-.08-.212-.043-.175-.147-.175-.146s-.49-.407-.545-.427c-.055-.02-.198-.346-.198-.346l-.578-.62-.398-.278-.992-.18-.535-.06-.912-.282-.62.592-.226.445-.072.231-.203.11-.497-.068-.64-.463.293-.406.709-.633.127-.305-.765-.506-.745-.612-.567-.253-.147-.31-.813-.05-.966.003-.59-.08-.457-.12-.164-.06" stroke="#000" stroke-width=".186"/></svg>